PathFileType	4	(X/Y/Z)	C:/Users/beibeiliu/ov580/test_trc\sequence.32_training_dense_right.trc
DataRate	CameraRate	NumFrames	NumMarkers	Units	OrigDataRate	OrigDataStartFrame	OrigNumFrames
120	120	22	19	mm	120	194	310
Frame#	Time	ThumbCMC			ThumbMCP			ThumbIP			ThumbTip			IndexMCP			IndexPIP			IndexTip			MiddleMCP			MiddlePIP			MiddleTip			RingMCP			RingPIP			RingTip			PinkyMCP			PinkyPIP			PinkyTip			BackHand1			BackHand2			BackHand3	
		X0	Y0	Z0	X1	Y1	Z1	X2	Y2	Z2	X3	Y3	Z3	X4	Y4	Z4	X5	Y5	Z5	X6	Y6	Z6	X7	Y7	Z7	X8	Y8	Z8	X9	Y9	Z9	X10	Y10	Z10	X11	Y11	Z11	X12	Y12	Z12	X13	Y13	Z13	X14	Y14	Z14	X15	Y15	Z15	X16	Y16	Z16	X17	Y17	Z17	X18	Y18	Z18	
193	1.60833	216.705	-11.5008	29.177	227.778	8.2826	0.149141	227.356	18.8569	-15.9674	219.602	30.4544	-37.467	208.966	-29.5363	-32.9831	212.262	-19.748	-58.1105	218.008	4.37405	-73.5672	186.614	-27.5082	-42.0663	187.996	-17.5339	-64.7864	193.481	9.31626	-78.1666	165.936	-21.762	-29.6384	169.361	-12.7611	-57.4291	176.368	7.40519	-73.1176	147.14	-10.1499	-14.3349	139.416	-7.2498	-38.9807	137.078	0.979118	-57.6126	165.685	-28.516	10.2859	166.995	-28.1361	39.8032	193.681	-34.7398	26.01	
194	1.61667	219.601	-13.0757	28.7126	230.162	6.612	3.24344	230.017	16.7087	-18.3625	222.996	27.7545	-34.7085	207.222	-28.7949	-37.1798	213.511	-16.3421	-58.9319	214.373	5.6961	-69.7674	183.993	-28.343	-42.6843	184.896	-15.0018	-66.321	192.517	10.0739	-78.6362	166.168	-21.9946	-31.5854	165.484	-13.7056	-55.3376	171.354	3.79913	-71.4461	150.176	-12.9536	-19.2916	140.554	-7.38091	-34.0186	141.047	-2.90319	-54.9707	168.527	-27.3149	10.4662	168.183	-29.7906	38.2094	194.083	-37.0115	23.1406	
195	1.625	216.58	-15.4888	27.1824	227.255	3.91313	3.5904	229.14	14.5818	-13.8053	222.571	24.9186	-32.9489	208.555	-28.4539	-36.403	215.588	-15.4161	-57.6486	221.493	11.3147	-66.6227	187.473	-29.8716	-40.8832	188.104	-16.1888	-65.7247	189.957	8.76706	-77.0548	164.24	-22.0533	-31.6747	165.053	-15.3783	-54.0731	172.761	2.4198	-71.7246	148.039	-12.9061	-17.2271	139.493	-7.35811	-33.1054	140.465	-3.4238	-57.5852	171.038	-27.6409	14.7342	168.212	-28.5273	38.8035	192.046	-36.0098	25.4339	
196	1.63333	217.162	-15.5479	30.1356	227.825	2.70087	5.35398	229.528	13.2359	-12.5983	228.58	25.5499	-32.1373	210.334	-29.4664	-36.1266	215.784	-14.1574	-55.3291	222.131	11.1125	-63.0587	186.061	-28.8364	-41.134	187.645	-15.1056	-65.4533	194.732	13.9599	-75.4445	167.561	-24.0732	-29.929	164.201	-15.0467	-54.6181	171.133	2.21649	-71.0178	151.747	-13.0722	-15.6944	140.106	-7.40293	-36.6946	134.817	-4.22976	-52.2658	164.888	-29.1653	12.8683	166.722	-27.7006	42.5058	191.007	-36.1674	25.0992	
197	1.64167	216.901	-16.5293	32.2765	230.059	1.40306	4.71658	232.438	11.3067	-14.5303	227.662	23.2744	-29.0784	209.31	-29.9584	-32.9804	215.486	-12.6263	-56.1627	218.125	9.38812	-61.1949	187.927	-29.6593	-36.1347	189.755	-16.8566	-62.1808	196.626	17.2533	-70.4632	169.077	-23.6836	-29.579	165.637	-13.5863	-55.3489	174.82	-0.530922	-70.2613	148.393	-11.6354	-11.5419	141.061	-9.13978	-35.4909	139.689	-5.65555	-52.9883	167.673	-27.5993	12.944	170.274	-28.8403	43.4417	193.676	-39.6628	25.9379	
198	1.65	215.729	-17.7557	31.6621	227.401	0.032287	10.4023	231.351	10.4186	-12.9733	228.909	24.3672	-34.0058	210.539	-32.8871	-30.6365	214.029	-15.0192	-55.7621	222.916	11.0868	-62.15	183.975	-27.6052	-38.4124	193.948	-12.1802	-62.9955	200.735	18.0218	-65.3312	166.617	-22.4462	-28.5238	167.895	-14.813	-56.3127	176.539	-1.18398	-68.9047	149.259	-13.7768	-13.7028	140.323	-10.4986	-34.667	136.77	-8.79924	-50.7765	167.74	-27.9534	15.6088	169.604	-32.0116	38.5331	190.325	-38.1223	26.988	
199	1.65833	215.849	-18.7159	27.6286	229.984	0.679879	4.16253	228.46	10.0132	-16.3226	225.001	22.5957	-32.4473	208.722	-31.6043	-34.9207	218.306	-20.2853	-54.5832	221.288	4.63185	-63.2327	186.789	-27.5959	-40.2437	194.325	-10.9282	-60.8219	200.778	22.6645	-55.6111	167.323	-23.1601	-29.8378	171.543	-16.0971	-55.8021	177.164	3.45353	-71.2273	150.112	-13.3991	-11.6564	141.191	-13.4212	-35.0397	138.404	-11.0387	-52.938	165.666	-28.8228	11.8277	168.477	-30.8113	41.0634	194.671	-41.8824	26.2522	
200	1.66667	216.679	-18.3499	30.2403	228.3	0.510621	9.52364	229.167	10.5981	-15.7614	225.354	22.9356	-32.7501	211.709	-34.2854	-31.8991	217.016	-20.7149	-56.5413	222.063	1.88187	-65.9624	187.157	-25.7327	-40.8697	193.197	-6.74658	-59.8432	202.099	23.3413	-50.2506	167.164	-24.1206	-31.0015	169.15	-13.7185	-56.396	177.768	5.99273	-71.7789	149.225	-14.8016	-12.1312	143.457	-15.1626	-35.7918	137.827	-12.701	-53.9467	170.949	-32.4496	13.1746	166.475	-30.9818	42.4182	192.176	-41.1643	25.0973	
201	1.675	219.35	-19.2565	32.8918	230.28	0.192223	5.78378	230.281	9.51326	-12.2249	223.995	22.384	-32.5315	211.653	-35.2489	-31.0816	215.016	-22.8239	-57.4648	222.316	-2.17648	-68.8391	186.925	-25.124	-39.5672	198.309	-5.99496	-59.7532	206.104	24.8476	-44.4808	167.249	-23.2179	-29.0546	167.714	-14.7818	-54.6495	181.146	2.50569	-70.5594	151.784	-14.8205	-12.6405	142.895	-15.4067	-31.7629	138.672	-12.1324	-53.7819	166.618	-29.901	12.5913	169.624	-33.6184	38.9197	195.995	-39.993	27.395	
202	1.68333	218.249	-19.9213	29.8049	229.476	-0.388912	8.55535	230.257	10.0708	-14.8847	219.741	20.4132	-31.7918	213.219	-36.8299	-34.5303	215.585	-24.5736	-57.198	220.559	-4.28928	-71.5516	191.383	-27.2528	-37.2591	196.431	-3.80771	-58.9529	207.497	20.5579	-45.4379	171.288	-25.6813	-31.8393	171.181	-13.9342	-57.006	179.661	2.61092	-69.1723	150.23	-15.7422	-14.351	145.477	-16.5525	-34.1542	137.136	-12.9168	-52.9374	167.872	-33.0244	15.2477	167.021	-31.9633	38.0306	194.041	-41.2388	25.7987	
203	1.69167	221.826	-21.8704	28.8321	232.9	-1.80315	8.5994	229.124	8.68897	-14.0928	221.478	21.1275	-32.5486	212.511	-36.6054	-35.0095	217.607	-27.4696	-56.9091	224.268	-4.96997	-73.9014	189.752	-26.7963	-41.9092	196.82	-4.91237	-57.9631	204.358	22.4884	-42.0049	168.4	-24.901	-31.5163	172.694	-13.9966	-58.0765	180.11	6.18461	-69.8169	151	-18.4336	-17.8031	145.699	-16.1957	-36.7075	138.952	-13.999	-52.1051	168.987	-34.0144	13.4413	165.419	-33.8693	41.7922	194.528	-44.8041	23.766	
204	1.7	219.181	-21.5208	32.2906	229.177	-2.85628	8.48654	231.633	7.96032	-13.3155	223.799	20.4788	-29.6583	209.139	-37.1946	-35.8617	217.202	-26.7648	-58.059	220.019	-5.04488	-74.5838	188.019	-26.5143	-40.662	193.689	-3.90164	-57.3575	206.844	21.605	-42.4821	169.861	-26.7755	-34.2404	169.963	-13.1201	-57.8766	182.911	3.99904	-69.7545	152.047	-18.5146	-15.2257	141.899	-15.3166	-34.2574	138.986	-14.9916	-52.052	169.461	-32.4688	14.0026	167.667	-35.1304	38.4647	194.433	-43.7394	24.9323	
205	1.70833	219.121	-21.545	30.5783	233.427	-2.79351	10.436	231.659	7.893	-11.6682	221.234	18.8089	-30.0817	209.648	-36.6514	-35.4124	216.225	-26.1325	-58.5623	220.219	-10.789	-71.5305	187.643	-27.4373	-36.8889	193.513	-5.67698	-56.5909	204.259	23.5443	-39.3842	166.915	-26.9598	-33.2899	171.647	-17.2199	-54.6063	182.034	1.40439	-67.6152	154.497	-19.0598	-13.1498	144.103	-18.3566	-32.8962	138.601	-16.6572	-53.5475	166.567	-35.1084	13.3187	170.858	-37.583	40.9612	193.134	-45.221	24.3581	
206	1.71667	219.608	-22.9613	29.7158	230.971	-2.35089	7.10228	230.996	9.13218	-15.3355	221.89	20.0663	-31.4901	208.736	-37.4369	-34.553	215.52	-27.5905	-56.0737	219.63	-8.14928	-72.6765	187.968	-29.0464	-36.307	192.33	-6.00318	-57.2347	205.048	21.5292	-41.8235	168.072	-26.9029	-28.7096	170.511	-14.5963	-56.6398	179.585	5.51466	-69.6601	153.359	-19.216	-13.3023	145.671	-19.2189	-35.2689	139.011	-16.8757	-51.1439	171.349	-36.0345	13.8172	168.489	-36.0288	37.958	192.937	-43.388	23.8759	
207	1.725	219.671	-22.3994	32.6294	228.472	-3.57888	7.33312	232.207	7.88571	-15.0252	223.452	19.7641	-30.8866	211.26	-38.313	-34.0415	213.616	-27.7427	-56.9708	219.915	-9.53597	-70.278	189.516	-27.3355	-40.8726	193.278	-6.81236	-56.9888	206.981	21.1654	-41.5051	169.105	-26.4283	-27.8066	171.076	-14.2447	-56.8519	178.431	1.38029	-68.1278	154.522	-18.5	-12.6349	141.67	-16.6567	-33.4114	138.944	-16.6107	-51.0422	170.536	-36.5453	14.8518	167.241	-36.8608	42.6907	193.603	-45.3883	27.4036	
208	1.73333	220.965	-22.6133	31.1217	232.192	-3.38086	9.41924	230.875	6.56479	-14.9155	222.423	18.8521	-34.8085	212.401	-38.9174	-31.884	216.897	-30.0473	-54.0246	222.624	-6.0202	-73.1651	191.5	-28.3592	-40.1857	193.418	-6.08337	-57.4607	204.6	20.8518	-43.1566	171.773	-27.7359	-29.0208	172.744	-18.7203	-52.0089	179.032	1.07573	-68.4057	152.732	-19.1659	-16.9997	143.151	-16.3942	-29.9429	139.443	-16.241	-49.9535	172.767	-34.6347	14.7954	170.212	-37.6665	38.8827	193.544	-44.5462	22.9083	
209	1.74167	223.35	-22.7729	32.2275	231.758	-3.88604	7.3453	231.378	5.90453	-12.5625	222.535	18.8741	-33.5527	212.605	-38.5675	-29.9441	216.13	-27.7211	-55.5465	221.185	-9.99444	-70.4845	189.605	-28.141	-37.0653	194.433	-5.37965	-57.306	208.588	19.2946	-42.5813	171.76	-27.723	-29.9221	171.783	-14.1888	-57.4658	180.675	5.10867	-70.6924	154.289	-19.0881	-16.3345	145.275	-17.3004	-35.8715	139.391	-15.8043	-51.4927	169.056	-33.3497	12.6884	168.865	-34.2819	39.4004	192.319	-42.8607	23.9148	
210	1.75	218.544	-23.3016	32.9934	229.504	-5.28033	6.61609	230.071	5.90731	-14.1057	225.961	17.8466	-28.4852	214.02	-38.4366	-33.1753	216.488	-29.108	-54.4171	226.586	-7.24119	-72.2986	190.189	-27.0306	-41.5476	200.504	-6.1955	-57.6214	208.028	18.939	-43.098	171.432	-27.1353	-28.0638	175.261	-16.5489	-55.5399	183.61	0.647944	-69.403	155.164	-17.7992	-12.1812	147.416	-16.905	-33.6458	141.955	-14.2949	-52.2708	173.521	-34.2543	14.7176	170.751	-37.097	42.1213	194.79	-44.9967	26.2187	
211	1.75833	224.123	-23.0351	31.4993	236.425	-3.90839	10.7575	236.749	7.09174	-13.0435	228.257	20.5017	-31.7581	215.69	-37.3974	-34.7195	220.319	-27.7652	-55.9284	227.979	-5.07795	-71.5585	193.37	-29.2437	-38.0474	198.808	-7.03655	-56.5042	208.836	19.5349	-42.3819	174.427	-27.1184	-32.2531	172.75	-15.2665	-56.0965	181.249	3.80667	-68.9607	154.265	-18.5529	-14.9267	149.576	-17.9802	-30.4872	140.311	-13.5345	-53.189	174.176	-35.7234	12.3501	170.231	-34.2121	41.0947	194.389	-45.3899	23.7881	
212	1.76667	225.008	-21.9603	29.9269	232.04	-2.84187	10.7299	237.409	9.10291	-12.3681	227.141	22.0537	-32.1394	216.845	-36.8131	-33.6994	220.987	-26.4754	-53.7865	228.15	-3.50812	-70.6323	192.854	-27.1815	-41.416	200.73	-7.13215	-56.7777	207.511	20.8847	-42.3342	170.19	-25.6327	-33.0547	175.567	-15.0916	-56.5836	182.631	4.14511	-69.38	153.568	-18.357	-15.9892	146.795	-17.5342	-34.2531	140.467	-12.2584	-53.2735	173.98	-35.7698	14.2638	174.475	-35.4133	38.281	197.787	-44.3204	24.8386	
213	1.775	223.552	-19.855	32.1887	234.529	-0.251463	6.86639	234.639	11.7276	-13.6898	222.903	23.3263	-33.3573	217.75	-34.4718	-30.2082	222.149	-23.4885	-54.1297	228.131	0.680677	-70.2398	194.2	-27.3002	-37.4319	199.734	-3.63992	-57.5101	205.456	25.1325	-38.1889	175.865	-27.342	-32.527	175.214	-16.1412	-54.2318	185.792	4.78231	-70.0552	156.476	-19.381	-14.2356	146.436	-17.3767	-33.1643	144.131	-15.5253	-52.0732	174.044	-35.3726	16.9687	172.953	-35.4967	42.0876	199.844	-43.5488	28.8718	
214	1.78333	225.449	-16.8291	34.3179	232.083	2.01674	11.9583	234.609	14.7688	-13.1834	224.994	26.8388	-29.7001	219.514	-31.0858	-31.858	221.218	-19.1289	-54.3462	227.467	4.3914	-67.792	197.827	-24.8327	-38.5664	197.411	-2.52465	-56.7292	207.426	25.8889	-40.5621	177.176	-27.1449	-32.2929	176.56	-15.5772	-56.674	182.493	3.42929	-68.9994	155.038	-19.7948	-14.1642	149.007	-19.8568	-35.5163	144.303	-17.0264	-53.8521	173.579	-34.4728	12.341	171.621	-36.6801	38.7697	198.615	-40.0889	27.7809	
